<?xml version="1.0" standalone="no"?>
<!DOCTYPE svg PUBLIC "-//W3C//DTD SVG 1.0//EN" "http://www.w3.org/TR/2001/REC-SVG-20010904/DTD/svg10.dtd">
<svg xmlns="http://www.w3.org/2000/svg" xmlns:xlink="http://www.w3.org/1999/xlink" id="body_1" width="439" height="320">

<g transform="matrix(2.2229557 0 0 2.2229557 -0 0.030408932)">
	<g transform="matrix(1 0 0 1 -4.582736 -58.94919)">
        <path d="M94.01715 59.92345C 87.63955 69.48372 78.09326 78.99207 71.90743 88.08649C 69.52329 91.447586 66.664856 97.683426 72.82573 98.133766C 75.322044 98.23571 78.09255 97.21904 80.74803 96.22695C 84.36182 94.87684 88.04339 93.344734 90.81784 91.83258C 111.78804 80.40322 127.45126 70.52469 146.4246 60.95751C 147.06941 60.632378 147.43234 61.213116 146.96788 61.705257C 121.98407 75.91034 95.953835 98.72331 71.5628 105.52991C 63.7996 107.40738 62.425148 102.75523 65.339645 96.164764C 72.032845 83.19252 81.737045 72.57422 90.54388 62.47026C 91.537895 61.326553 94.76622 58.961414 94.017136 59.92345L94.017136 59.92345L94.01715 59.92345z" stroke="#89B4FA" stroke-width="1.497" fill="#89B4FA" fill-rule="nonzero" />
        <path d="M59.37169 105.26632C 59.37169 105.271645 59.369812 105.276184 59.366047 105.27994C 59.36229 105.28371 59.357746 105.28558 59.352425 105.28558C 59.347107 105.28558 59.342567 105.28371 59.338802 105.27994C 59.335045 105.276184 59.333164 105.271645 59.33316 105.26632C 59.333164 105.261 59.335045 105.25646 59.338802 105.2527C 59.342567 105.24894 59.347107 105.247055 59.352425 105.247055C 59.357746 105.247055 59.36229 105.24894 59.366047 105.2527C 59.369812 105.25646 59.37169 105.261 59.37169 105.26632C 59.37169 105.26655 59.37169 105.26677 59.371677 105.26699" stroke="#E8C29C" stroke-width="0.264583" fill="#000000" fill-rule="nonzero" />
        <path d="M58.185474 105.38286C 40.519165 121.44513 10.759701 142.2751 5.3961716 162.85907C 5.0743427 164.89539 5.8899455 166.35117 7.2968497 167.33794C 8.479223 168.16722 10.018612 168.3458 11.263354 168.20883C 13.15674 168.00049 14.967829 167.29532 16.75904 166.43172C 23.758568 163.05696 30.516655 158.46829 36.455444 154.4363C 37.55608 153.68904 38.735367 153.04929 39.76899 152.21179C 44.419346 148.44385 51.188072 144.78973 53.72747 139.31416C 54.32459 138.02663 52.907166 138.32008 52.130535 138.90767C 50.317547 140.27934 48.512283 141.6625 46.659817 142.98036C 38.717453 148.4346 30.036493 154.01183 21.844858 157.96924C 19.41179 159.12997 16.929985 160.40573 14.259488 160.77393C 5.7816334 159.49828 17.600937 146.53433 19.86156 143.92062C 31.270233 130.50316 45.024086 117.245125 55.7317 109.017715C 56.715668 108.261665 58.9499 106.88925 59.83661 105.463684C 60.354183 104.63158 58.840683 104.78716 58.18548 105.38288C 58.185474 105.38288 58.185482 105.38287 58.18548 105.38287L58.18548 105.38287L58.185474 105.38286z" stroke="#F38BA8" stroke-width="1.497" fill="#E64553" fill-rule="nonzero" />
        <path d="M30.281713 177.80354C 29.917995 178.36157 29.682821 178.40463 29.2371 178.40584C 28.87596 178.40681 28.1123 177.99426 28.624346 177.23438C 32.018482 172.19748 35.995525 167.6494 39.926857 163.12126C 42.493706 160.16475 44.619354 157.61336 47.066044 154.82802C 48.66556 153.0071 50.445496 151.2935 52.22677 150.1209C 52.96333 149.63602 53.848457 149.27362 54.6363 149.30803C 57.06264 149.48415 49.233334 157.31828 48.787323 157.66888C 48.18269 158.14684 47.663982 158.76566 47.059326 159.2854C 41.591137 164.83533 36.101814 169.39185 31.660889 175.68756C 31.17796 176.37721 30.281715 177.80356 30.281715 177.80356L30.281715 177.80356L30.281713 177.80354z" stroke="#E8C29C" stroke-width="0.397" fill="#E3C3A1" fill-rule="nonzero" />
        <path d="M131.46165 108.90646C 138.95505 103.652565 144.14737 107.67613 142.87225 116.05399C 141.9184 122.32106 136.65204 126.86079 133.05042 131.30443C 131.99089 132.61165 133.6595 133.04823 134.54602 132.32921C 143.71379 124.8937 151.5018 115.663635 150.40996 104.50717C 150.2175 102.54062 150.25241 99.15286 145.70284 99.091515C 140.23363 99.01778 133.63652 104.53752 129.70836 108.716515C 128.9466 109.52693 130.48483 109.59135 131.46164 108.90646L131.46164 108.90646L131.46165 108.90646z" stroke="#E8C29C" stroke-width="0.397" fill="#E3C3A1" fill-rule="nonzero" />
        <path transform="matrix(0.26458332 0 0 0.26458332 0 0)"  d="M108.75434 671.8671C 108.75434 669.92413 122.82814 650.338 131.2914 640.5029C 138.35199 632.29785 164.1187 602.32385 172.63322 592.4106C 186.95111 575.7406 197.28345 566.78046 203.6587 565.5054C 213.2031 563.5965 204.95372 573.9388 166.06944 612.6312C 135.1135 643.43445 122.3642 657.672 115.41875 669.1944C 113.00789 673.194 108.75435 674.89984 108.75435 671.8671L108.75435 671.8671L108.75434 671.8671z" stroke="#F38BA8" stroke-width="0.21532266" fill="#FF708A" fill-rule="nonzero" />
        <path transform="matrix(0.26458332 0 0 0.26458332 0 0)"  d="M109.07318 674.6042C 106.95356 673.685 106.35575 671.7144 107.58046 669.6837C 109.45764 666.57117 117.60443 655.4545 123.02656 648.6069C 129.2149 640.7915 134.48592 634.51483 147.42378 619.55493C 152.11098 614.13513 159.32855 605.7446 163.46281 600.90936C 178.09969 583.7906 181.9686 579.50366 186.74245 575.1147C 195.12932 567.40393 200.63998 564.0472 205.4878 563.69617C 207.22975 563.57 208.09898 563.922 208.63535 564.9707C 209.13136 565.9405 208.92766 567.0183 207.81378 569.3181C 205.92403 573.2198 201.19717 579.25775 193.57494 587.5064C 190.83923 590.467 186.73347 594.54803 179.6521 601.34564C 172.80309 607.92017 156.91219 623.3891 150.93265 629.30237C 134.65312 645.4016 125.1671 656.5811 116.82249 669.5019C 114.382195 673.28046 113.764824 674.02594 112.646324 674.5449C 111.70371 674.9823 110.00978 675.0104 109.073166 674.60425L109.073166 674.60425L109.07318 674.6042zM111.47863 673.546C 112.99516 672.97864 114.8537 671.09875 116.41189 668.5562C 121.32558 660.5384 129.98541 650.2777 144.88542 634.81915C 147.54861 632.05615 158.85426 620.62244 170.00908 609.41095C 181.1639 598.19946 191.8317 587.33093 193.71526 585.25867C 206.63867 571.0406 209.691 566.2864 206.69862 565.0361C 205.8631 564.68695 204.25792 564.78345 202.56708 565.2844C 196.5195 567.07623 187.08667 575.1933 174.86433 589.12305C 167.00389 598.08154 129.3882 641.968 126.75456 645.253C 121.01975 652.4061 113.41948 662.886 110.09262 668.2278C 108.5858 670.6472 108.29891 671.2352 108.29891 671.90424C 108.29891 672.7834 108.69869 673.4979 109.333984 673.75433C 109.972946 674.0122 110.32379 673.9781 111.478615 673.546z" stroke="#F38BA8" stroke-width="0.037999984" fill="#FF708A" fill-rule="nonzero" />
        <path transform="matrix(0.26458332 0 0 0.26458332 0 0)"  d="M35.520016 632.57416C 30.721409 631.62006 26.468117 628.5426 24.468287 624.5777C 22.708332 621.0884 22.695518 617.84955 24.419397 612.2214C 29.669964 595.0793 39.31496 577.39746 54.080757 557.8442C 70.3586 536.28864 93.28073 512.49615 126.15201 483.03635C 128.95773 480.52182 131.34816 478.46445 131.46405 478.46445C 131.57994 478.46445 128.60551 481.56927 124.85421 485.36407C 104.65274 505.79974 83.10914 529.484 64.67255 551.5257C 54.718716 563.4259 48.184227 572.8454 43.98709 581.34393C 41.013557 587.36487 39.476013 592.58514 39.489677 596.6135C 39.505417 601.25323 41.543415 605.21234 45.147438 607.60455C 47.67997 609.2856 52.740112 610.8507 54.65043 610.5439C 63.14562 609.17957 70.09711 606.50775 87.30406 597.9935C 107.68054 587.91095 129.95087 574.8158 157.10022 556.9528C 172.17381 547.0351 180.49146 541.20905 192.63365 532.0634C 196.23557 529.3504 199.23029 527.1784 199.2886 527.2367C 199.45992 527.408 196.77371 531.71155 195.10783 533.9347C 188.91313 542.20154 181.92288 548.32733 162.99492 562.0765C 158.5614 565.29694 152.96655 569.4594 150.56195 571.3264C 148.15733 573.1934 145.02176 575.4731 143.59402 576.3924C 142.16628 577.3117 135.64922 581.64215 129.11165 586.0156C 98.598854 606.428 84.39241 615.0797 66.80861 623.95825C 56.79909 629.0123 51.326633 631.1416 45.414314 632.2824C 42.363922 632.87103 37.70412 633.0084 35.52004 632.57416L35.52004 632.57416L35.520016 632.57416z" stroke="#F38BA8" stroke-width="0.0103835715" fill="#FF708A" fill-rule="nonzero" />
        <path transform="matrix(0.26458332 0 0 0.26458332 0 0)"  d="M34.93298 638.1859C 28.131628 636.9517 22.462467 632.983 19.584003 627.4406C 18.002182 624.3949 17.53108 622.37604 17.531015 618.64276C 17.530966 615.7362 17.617476 615.21326 18.683607 611.6748C 28.350313 579.59186 51.882607 546.2376 93.280334 505.9427C 113.80474 485.96506 127.38907 473.9142 170.91919 437.06833C 195.92473 415.9025 205.72513 407.4565 215.45927 398.68365C 219.40181 395.13046 221.3244 394.0441 224.05835 393.82465C 225.48753 393.70993 226.02075 393.79364 227.05684 394.29517C 229.4368 395.44727 229.82176 397.78445 228.07507 400.47687C 226.03633 403.61945 223.07541 406.30222 215.73253 411.6599C 210.30255 415.62186 202.8216 421.53482 194.82874 428.18228C 159.91919 457.21573 119.2739 497.29706 85.60679 535.88873C 65.990204 558.3747 61.40364 564.03595 54.86783 573.83014C 46.129494 586.9249 43.178185 596.93726 46.696796 601.55035C 47.50921 602.6155 49.99872 603.9696 52.18974 604.53815C 53.724266 604.93634 54.00076 604.9283 56.561775 604.41095C 62.147705 603.2826 67.581635 601.1928 78.87556 595.8296C 102.33823 584.6877 128.13582 569.50903 161.08209 547.46136C 174.85141 538.24695 176.91736 536.7874 188.11098 528.3659C 192.6821 524.9269 197.10878 521.7911 197.94806 521.39746C 199.96298 520.4525 203.41512 520.3646 204.58846 521.22833C 205.61894 521.9869 206.1687 523.2531 206.1687 524.8679C 206.1687 527.3073 202.59792 533.67957 198.05667 539.34436C 191.91164 547.0097 184.65167 553.2997 167.81151 565.5485C 162.68633 569.27637 156.47714 573.8936 154.0133 575.8091C 151.54947 577.72455 147.58154 580.5527 145.19568 582.0939C 142.80981 583.6351 137.13893 587.40247 132.59372 590.46594C 109.0022 606.3666 94.20389 615.6328 79.51634 623.7014C 73.969246 626.7487 63.12932 632.17786 59.57857 633.68726C 49.92282 637.7917 41.36715 639.35333 34.932953 638.1858L34.932953 638.1858L34.93298 638.1859zM47.13599 632.20593C 52.795235 630.85657 56.95531 629.196 65.99039 624.67993C 82.86928 616.2432 96.93265 607.79456 122.37806 590.8045C 129.72083 585.90173 138.26678 580.2223 141.36908 578.18353C 144.47139 576.1448 148.82703 573.05756 151.04828 571.32294C 153.26953 569.5883 159.23944 565.151 164.31476 561.4621C 178.21819 551.35675 183.60867 546.9452 189.56512 540.7973C 193.17926 537.067 196.6823 532.6058 198.4942 529.4259C 199.92607 526.91296 200.1132 526.4103 199.53415 526.6325C 199.28958 526.7264 195.61008 529.426 191.35745 532.6318C 179.50548 541.5661 173.09164 546.05414 157.3526 556.4266C 127.631226 576.0136 103.401 590.09436 81.26554 600.6425C 70.62118 605.71484 65.42107 607.78406 59.705597 609.22174C 54.52942 610.52374 53.130085 610.5555 49.731895 609.4481C 44.280777 607.67175 40.86596 604.04425 40.013126 599.124C 38.272026 589.0791 47.484047 572.02795 66.97641 549.21594C 90.613556 521.5532 109.474945 501.02005 130.67465 479.87177C 134.64435 475.9117 137.84383 472.6232 137.78462 472.564C 137.66022 472.43958 127.176834 481.6628 119.00219 489.08868C 108.53879 498.59366 100.84985 505.903 91.80647 514.9419C 70.866745 535.87115 56.562622 552.75684 44.815346 570.4138C 35.82286 583.9302 29.91974 595.3957 25.649221 607.63983C 22.865702 615.62054 22.354952 618.6685 23.234962 622.0471C 24.565916 627.157 29.207216 631.4093 34.869034 632.70624C 37.542343 633.31854 43.486557 633.0762 47.135998 632.206z" stroke="#F38BA8" stroke-width="0.0103835715" fill="#FF708A" fill-rule="nonzero" />
        <path transform="matrix(0.26458332 0 0 0.26458332 0 0)"  d="M173.47452 605.9228C 173.47392 605.8297 173.49751 605.8044 174.84428 604.4495C 182.20273 597.0469 191.13402 587.93207 193.353 585.5605C 194.62122 584.205 199.97345 578.18195 199.90971 578.18195C 199.90271 578.18195 199.78055 578.31573 199.63744 578.4793C 196.01651 582.61755 189.65163 589.384 183.20724 595.946C 180.2583 598.9487 178.11755 601.1203 176.5297 602.71967C 175.49385 603.763 174.38266 604.88293 174.06038 605.2084L174.06038 605.2084L173.47443 605.8001L173.47429 605.23254L173.47414 604.665L174.90504 603.22766C 176.469 601.65674 178.11452 599.99567 179.35529 598.7354C 179.79349 598.29034 180.47304 597.60016 180.8654 597.2017C 181.25777 596.8033 182.05649 595.9882 182.64035 595.39044C 183.22421 594.79266 183.91975 594.0808 184.186 593.8085C 185.46306 592.50226 187.81665 590.06195 189.41577 588.3859C 196.53154 580.92804 201.2038 575.66394 203.88348 572.0854L203.88348 572.0854L204.13525 571.7492L204.14125 572.4892L204.14725 573.2292L203.88849 573.562C 201.86829 576.1608 198.8675 579.6536 194.60747 584.36487C 193.3916 585.70953 192.38834 586.77313 190.80278 588.3983C 190.58894 588.6175 190.01836 589.2044 189.53477 589.7025C 189.05121 590.2007 188.41077 590.8582 188.11156 591.16376C 186.92606 592.37427 186.43147 592.8789 185.87457 593.44617C 185.55504 593.7716 184.66408 594.67914 183.89464 595.4629C 183.12521 596.24664 182.11462 597.2737 181.6489 597.7453C 181.18318 598.21686 180.38397 599.0264 179.87286 599.5443C 178.56456 600.87006 176.95108 602.5009 175.52402 603.94006C 174.85207 604.6177 174.11598 605.3623 173.88829 605.5948L173.88829 605.5948L173.4743 606.01746L173.47452 605.9228zM199.99315 578.0974C 200.02435 578.0642 200.04445 578.037 200.03775 578.037C 200.03075 578.037 200.00015 578.0642 199.96895 578.0974C 199.93774 578.1306 199.91765 578.15784 199.92435 578.15784C 199.93135 578.15784 199.96194 578.1306 199.99315 578.0974zM200.15013 577.91626C 200.17413 577.88965 200.18843 577.868 200.18173 577.868C 200.17473 577.868 200.15004 577.8897 200.12593 577.91626C 200.10193 577.9429 200.08763 577.96454 200.09433 577.96454C 200.10133 577.96454 200.12613 577.9428 200.15013 577.91626z" stroke="#F38BA8" stroke-width="0.0009177867" fill="#FF708A" fill-rule="nonzero" />
        <path transform="matrix(0.26458332 0 0 0.26458332 0 0)"  d="M154.6955 613.2802L154.6955 612.6919L163.40009 602.5619C 168.1876 596.99036 172.45157 592.03174 172.87555 591.54266C 173.29955 591.0536 173.62053 590.66943 173.58887 590.689C 173.47624 590.7586 161.43057 604.7131 156.05182 611.005C 154.64055 612.6559 154.6955 612.59546 154.6955 612.49603C 154.6955 612.45416 155.31941 611.6939 156.08195 610.8067C 174.9505 588.8534 177.33351 586.1339 181.74924 581.515C 185.84276 577.23315 189.7508 573.5657 193.01488 570.9427C 197.4731 567.3601 200.90218 565.4639 203.91788 564.91364C 204.60417 564.7884 205.91618 564.76373 206.33311 564.8682C 207.88931 565.25824 208.199 566.4386 207.27019 568.43976C 206.8224 569.4045 205.87802 570.89386 204.76929 572.3839L204.76929 572.3839L204.15942 573.2035L204.15942 572.468L204.15942 571.73254L204.48265 571.28613C 205.80754 569.45624 206.64825 567.9134 206.84227 566.956C 206.96443 566.3531 206.85127 566.034 206.44432 565.8336C 206.2264 565.7263 206.1613 565.7196 205.36703 565.7223C 204.61073 565.7253 204.4454 565.7412 203.79713 565.87744C 202.95366 566.0547 202.25943 566.27246 201.44377 566.61554C 195.88051 568.95557 188.01434 575.78174 177.7338 587.1908C 175.80362 589.3329 174.55672 590.76355 170.17685 595.86145C 169.35513 596.8179 168.15962 598.20905 167.52016 598.95294C 166.88069 599.69684 165.62012 601.16406 164.7189 602.2135C 163.81769 603.26294 162.75246 604.50195 162.35173 604.96686C 161.951 605.43176 160.68967 606.89905 159.5487 608.2274C 155.79959 612.59247 155.06941 613.4418 154.88135 613.65643L154.88135 613.65643L154.69551 613.8685L154.6955 613.2802zM173.80301 590.46344L173.94489 590.30646L173.7879 590.4483C 173.64156 590.58057 173.6087 590.6204 173.64603 590.6204C 173.65402 590.6204 173.72502 590.54974 173.80301 590.46344zM174.11395 590.1132C 174.20406 590.0202 174.26695 589.94415 174.25368 589.94415C 174.24037 589.94415 174.15578 590.02026 174.06566 590.1132C 173.97556 590.20624 173.91266 590.2823 173.92595 590.2823C 173.93925 590.2823 174.02385 590.2062 174.11395 590.1132zM174.45209 589.7268C 174.54219 589.6338 174.60509 589.55774 174.59181 589.55774C 174.5785 589.55774 174.49391 589.63385 174.4038 589.7268C 174.31369 589.8198 174.2508 589.8959 174.26408 589.8959C 174.27739 589.8959 174.36198 589.81976 174.45209 589.7268zM175.35101 588.7003C 176.30441 587.62384 177.64255 586.1324 178.24379 585.476C 179.1797 584.4543 180.56152 582.96094 180.92564 582.57776C 182.10858 581.3329 182.49867 580.9276 183.45966 579.9451C 184.29877 579.0873 184.35672 579.0211 183.7347 579.63116C 182.00027 581.33215 178.35176 585.2502 175.638 588.326C 175.21606 588.8042 174.80498 589.2661 174.72446 589.3525C 174.64395 589.4388 174.59073 589.50946 174.60622 589.50946C 174.62172 589.50946 174.95686 589.1454 175.35101 588.7004zM185.85245 577.54193L186.79391 576.5879L185.8399 577.52936C 184.95349 578.4041 184.86407 578.4959 184.89842 578.4959C 184.90543 578.4959 185.33463 578.0666 185.85245 577.5419zM187.37358 576.0807C 187.58487 575.86816 187.74689 575.6943 187.7336 575.6943C 187.72029 575.6943 187.53656 575.86816 187.32527 576.0807C 187.11398 576.2932 186.95197 576.4671 186.96526 576.4671C 186.97856 576.4671 187.1623 576.2932 187.37358 576.0807zM188.21892 575.2837C 188.36322 575.1376 188.47041 575.018 188.45714 575.018C 188.44383 575.018 188.31491 575.1376 188.17061 575.2837C 188.0263 575.4298 187.91911 575.5494 187.93239 575.5494C 187.9457 575.5494 188.07462 575.4298 188.21892 575.2837zM188.82272 574.7282C 188.9265 574.62195 189.00052 574.535 188.98724 574.535C 188.97394 574.535 188.87819 574.62195 188.77441 574.7282C 188.67064 574.8345 188.59662 574.92145 188.6099 574.92145C 188.6232 574.92145 188.71895 574.8345 188.82272 574.7282zM189.3571 574.2331L189.49898 574.0761L189.342 574.218C 189.25569 574.296 189.18501 574.3667 189.18501 574.375C 189.18501 574.4123 189.22491 574.379 189.35712 574.2331zM189.86127 573.78625C 189.92366 573.71985 189.96385 573.66547 189.95056 573.66547C 189.93726 573.66547 189.87537 573.7198 189.81296 573.78625C 189.75056 573.85266 189.71037 573.90704 189.72366 573.90704C 189.73697 573.90704 189.79886 573.8527 189.86127 573.78625zM190.2749 573.41187L190.41678 573.2549L190.2598 573.3968C 190.1734 573.4748 190.10281 573.5455 190.10281 573.5538C 190.10281 573.59106 190.14272 573.5578 190.27492 573.41187zM190.65831 573.0858C 190.7064 573.0327 190.73491 572.9892 190.7216 572.9892C 190.7083 572.9892 190.6581 573.0327 190.61002 573.0858C 190.56192 573.1389 190.53342 573.18243 190.54672 573.18243C 190.56003 573.18243 190.61023 573.1389 190.65831 573.0858zM191.0689 572.7235C 191.13129 572.6571 191.17148 572.6027 191.15819 572.6027C 191.14488 572.6027 191.083 572.65704 191.02058 572.7235C 190.95819 572.7899 190.918 572.8443 190.93129 572.8443C 190.9446 572.8443 191.00648 572.79 191.0689 572.7235zM191.38287 572.4578C 191.43097 572.4047 191.45947 572.3612 191.44617 572.3612C 191.43286 572.3612 191.38266 572.4047 191.33458 572.4578C 191.28648 572.5109 191.25798 572.55444 191.27129 572.55444C 191.28459 572.55444 191.3348 572.5109 191.38287 572.4578zM191.70302 572.18005C 191.76312 572.10345 191.76141 572.10175 191.68481 572.16187C 191.63832 572.19836 191.60031 572.2364 191.60031 572.24634C 191.60031 572.28613 191.64001 572.26056 191.70308 572.18005zM192.01083 571.92645C 192.05893 571.87335 192.08743 571.82983 192.07413 571.82983C 192.06082 571.82983 192.01062 571.87335 191.96254 571.92645C 191.91444 571.97955 191.88594 572.0231 191.89925 572.0231C 191.91255 572.0231 191.96275 571.97955 192.01083 571.92645zM192.30066 571.68494C 192.34875 571.63184 192.37726 571.5883 192.36395 571.5883C 192.35065 571.5883 192.30045 571.63184 192.25237 571.68494C 192.20427 571.73804 192.17577 571.78156 192.18907 571.78156C 192.20238 571.78156 192.25258 571.73804 192.30066 571.68494zM194.21484 570.15125C 194.27495 570.07465 194.27324 570.07294 194.19664 570.13306C 194.11613 570.19617 194.09059 570.23584 194.13034 570.23584C 194.14034 570.23584 194.17844 570.1978 194.21484 570.15137zM197.4934 567.8413C 197.4934 567.828 197.44989 567.8404 197.39679 567.8689C 197.34369 567.8973 197.30019 567.9315 197.30019 567.9448C 197.30019 567.9581 197.34369 567.9457 197.39679 567.91724C 197.44989 567.88885 197.4934 567.8546 197.4934 567.84143zM198.26627 567.3583C 198.26627 567.345 198.22276 567.3574 198.16966 567.38586C 198.11656 567.41425 198.07306 567.4485 198.07306 567.4618C 198.07306 567.4751 198.11656 567.46265 198.16966 567.4342C 198.22276 567.4058 198.26627 567.3716 198.26627 567.3583zM198.6044 567.16504C 198.6044 567.15173 198.5609 567.1642 198.5078 567.1926C 198.4547 567.221 198.4112 567.25525 198.4112 567.26855C 198.4112 567.28186 198.4547 567.2695 198.5078 567.24097C 198.5609 567.2126 198.6044 567.17834 198.6044 567.16504zM207.62206 567.13525C 207.60666 567.09674 207.59515 567.10815 207.59285 567.1644C 207.59085 567.21533 207.60185 567.24396 207.61826 567.22784C 207.63426 567.21185 207.63606 567.17017 207.62225 567.13525zM198.84593 567.02014C 198.84593 567.00684 198.80243 567.0192 198.74933 567.0477C 198.69623 567.0761 198.65273 567.11035 198.65273 567.12366C 198.65273 567.13696 198.69623 567.1245 198.74933 567.09607C 198.80243 567.0677 198.84593 567.03345 198.84593 567.02014zM207.67067 566.76996C 207.65857 566.72345 207.64857 566.76196 207.64857 566.85443C 207.64857 566.94745 207.65857 566.9855 207.67067 566.9389C 207.68277 566.8924 207.68277 566.81635 207.67067 566.76984zM199.37727 566.73175C 199.37727 566.71844 199.29027 566.75195 199.18405 566.80615C 199.07777 566.86035 198.99083 566.9156 198.99083 566.9289C 198.99083 566.9422 199.07773 566.9087 199.18405 566.8545C 199.29033 566.8003 199.37727 566.74506 199.37727 566.73175zM200.41891 566.18933C 200.39752 566.1679 199.42558 566.65344 199.42558 566.68555C 199.42558 566.6984 199.65294 566.5958 199.9308 566.4577C 200.20866 566.3195 200.42831 566.1987 200.41891 566.18933zM207.67067 566.19025C 207.65857 566.14374 207.64857 566.18225 207.64857 566.2747C 207.64857 566.36774 207.65857 566.40576 207.67067 566.3592C 207.68277 566.3127 207.68277 566.23663 207.67067 566.1901zM201.17766 565.8911C 201.46132 565.7731 201.68489 565.668 201.67448 565.6576C 201.65118 565.6343 200.5849 566.08124 200.5849 566.11426C 200.5849 566.12726 200.6022 566.1307 200.6234 566.12225C 200.64459 566.1133 200.89398 566.0096 201.17764 565.89154zM207.58905 565.8971C 207.58905 565.8756 207.55615 565.8158 207.51585 565.7643C 207.44795 565.6773 207.44675 565.6802 207.49945 565.8034C 207.55635 565.93634 207.58905 565.9706 207.58905 565.8972zM202.348 565.455C 202.66682 565.3508 202.9001 565.2643 202.8664 565.26276C 202.78789 565.2587 201.7442 565.5957 201.7442 565.62463C 201.7442 565.65436 201.7027 565.66595 202.348 565.455zM203.08366 565.2307C 203.06757 565.2147 203.02597 565.2129 202.99106 565.2267C 202.95256 565.24207 202.96396 565.2536 203.02026 565.25586C 203.07117 565.2579 203.09976 565.2469 203.08366 565.23047zM203.27687 565.18243C 203.26077 565.16644 203.21918 565.1646 203.18427 565.1784C 203.14577 565.1938 203.15717 565.2053 203.21347 565.2076C 203.26437 565.2096 203.29297 565.1986 203.27687 565.1822zM203.74886 565.09375C 203.90825 565.05774 203.98433 565.02826 203.91792 565.0281C 203.78242 565.0277 203.27327 565.1499 203.38657 565.1556C 203.42647 565.1576 203.58945 565.12976 203.74886 565.09375zM204.29228 564.98517C 204.24579 564.97296 204.16971 564.97296 204.12321 564.98517C 204.07672 564.9974 204.11522 565.00726 204.20772 565.00726C 204.30072 565.00726 204.33875 564.99725 204.29222 564.98517zM204.67928 564.93695C 204.63307 564.92487 204.54614 564.92444 204.48605 564.936C 204.42595 564.9476 204.46376 564.9574 204.57005 564.95795C 204.67633 564.9585 204.72548 564.949 204.6793 564.93695zM205.5482 564.88635C 205.422 564.87634 205.2155 564.87634 205.08931 564.88635C 204.96312 564.89636 205.0664 564.9045 205.31876 564.9045C 205.57115 564.9045 205.6744 564.8965 205.5482 564.88635z" stroke="#F38BA8" stroke-width="0.0018355759" fill="#FF708A" fill-rule="nonzero" />
        <path transform="matrix(0.26458332 0 0 0.26458332 0 0)"  d="M137.74081 641.5697L137.74106 641.02625L138.35353 640.37415C 145.19984 633.08466 151.39388 626.7586 164.99255 613.16724L164.99255 613.16724L173.4377 604.7266L173.4377 605.26733L173.4377 605.80804L163.86006 615.39856C 154.95045 624.3202 152.12038 627.1782 147.90622 631.5102C 144.7675 634.73663 141.92009 637.71 139.22083 640.5798C 138.42763 641.4231 137.77008 642.11304 137.7596 642.11304C 137.7491 642.11304 137.74069 641.86847 137.7408 641.5696L137.7408 641.5696L137.74081 641.5697z" stroke="#F38BA8" stroke-width="0.0018355759" fill="#FF708A" fill-rule="nonzero" />
        <path transform="matrix(0.26458332 0 0 0.26458332 0 0)"  d="M137.74059 632.9012L137.74059 632.21765L138.45645 631.3809C 151.74846 615.84424 154.66916 612.4475 154.68796 612.5039C 154.69795 612.5327 154.67355 612.5931 154.63455 612.63806C 154.59555 612.683 151.373 616.4477 147.47325 621.004C 143.57349 625.56036 140.32674 629.35345 140.25822 629.43317L140.25822 629.43317L140.13367 629.57806L140.26181 629.4573C 140.3323 629.39087 141.08176 628.53033 141.9273 627.545C 146.62515 622.0703 154.35814 613.08044 154.51312 612.9135L154.51312 612.9135L154.69307 612.7197L154.69331 613.2994L154.69356 613.879L153.11255 615.719C 152.243 616.73096 151.01901 618.1548 150.39261 618.88293C 147.577 622.156 147.03888 622.7818 145.4947 624.5785C 144.59279 625.6279 143.4619 626.943 142.9816 627.5009C 141.96494 628.6819 139.73796 631.2736 138.6649 632.5246C 138.25471 633.0028 137.87892 633.43695 137.82983 633.4893C 137.74274 633.58234 137.74054 633.568 137.74054 632.90106L137.74054 632.90106L137.74059 632.9012zM138.61624 631.4016C 138.67635 631.325 138.67464 631.3233 138.59804 631.3834C 138.55154 631.4199 138.51353 631.45795 138.51353 631.4679C 138.51353 631.50757 138.55324 631.4821 138.6163 631.4016zM138.85776 631.11176C 138.91786 631.03516 138.91615 631.03345 138.83955 631.09357C 138.79306 631.13007 138.75505 631.1681 138.75505 631.17804C 138.75505 631.21783 138.79475 631.19226 138.85782 631.11176zM139.16557 630.76154C 139.21367 630.70844 139.24217 630.6649 139.22887 630.6649C 139.21556 630.6649 139.16536 630.70844 139.11728 630.76154C 139.06918 630.81464 139.04068 630.85815 139.05399 630.85815C 139.06729 630.85815 139.1175 630.81464 139.16557 630.76154zM139.43126 630.4476C 139.49365 630.38116 139.53384 630.3268 139.52055 630.3268C 139.50725 630.3268 139.44536 630.3811 139.38295 630.4476C 139.32056 630.514 139.28036 630.56836 139.29366 630.56836C 139.30696 630.56836 139.36885 630.51404 139.43126 630.4476zM139.74828 630.0732L139.89015 629.9162L139.73317 630.05804C 139.58682 630.1903 139.55399 630.23016 139.5913 630.23016C 139.59929 630.23016 139.67029 630.1595 139.74828 630.0732zM140.0381 629.73505L140.17998 629.57806L140.023 629.72C 139.87665 629.85223 139.8438 629.8921 139.88112 629.8921C 139.88911 629.8921 139.96011 629.8215 140.0381 629.7351z" stroke="#F38BA8" stroke-width="0.0018355759" fill="#FF708A" fill-rule="nonzero" />
        <path transform="matrix(0.26458332 0 0 0.26458332 0 0)"  d="M283.69608 696.16724C 283.55457 691.38586 322.7337 643.7375 342.38306 624.79407C 379.49188 589.0183 440.06067 551.7088 498.12537 528.85895C 526.24255 517.7941 569.33984 506.8641 623.7091 497.00934C 649.63904 492.30936 678.0657 487.1264 686.8794 485.49164C 721.1743 479.1306 737.1559 464.45474 734.4794 441.78046C 734.0081 437.7879 732.4606 432.2232 731.0404 429.4145C 722.7305 412.97952 709.6974 408.36758 680.05536 411.37274C 670.5027 412.34122 660.89276 412.68332 658.7001 412.133C 652.9261 410.6838 651.061 406.29453 653.0618 398.8641C 657.10046 383.8657 685.0088 350.86328 703.94116 338.69766C 717.57495 329.93686 720.6304 330.69003 708.5693 339.83847C 695.1354 350.02817 686.0238 360.27237 681.38776 370.3988C 674.71844 384.96652 679.3373 391.42603 693.7829 387.73355C 703.48694 385.25308 731.8057 385.27527 740.6811 387.77036C 745.1949 389.03925 749.2274 391.91425 754.109 397.34378C 765.4986 410.01175 766.72437 424.3534 758.00323 442.9068C 751.12366 457.5425 721.6627 484.20697 700.65454 494.81183C 682.6718 503.8895 649.7582 512.1011 592.79407 521.7218C 522.6929 533.5613 497.747 541.1673 446.7479 566.25146C 397.47693 590.48566 369.9226 607.75165 343.18402 631.14624C 327.385 644.96936 306.92462 666.90204 296.25723 681.44977C 285.79883 695.71246 283.75348 698.1089 283.69604 696.1673L283.69604 696.1673L283.69608 696.16724z" stroke="none" fill="#FF708A" fill-rule="nonzero" />
        <path transform="matrix(0.26458332 0 0 0.26458332 0 0)"  d="M611.7054 508.8218L611.7054 499.38348L611.8141 499.35718C 611.9388 499.3271 614.88824 498.7702 617.7193 498.24237C 618.782 498.04422 623.3142 497.21667 627.79083 496.40335C 643.1251 493.6174 657.71643 490.96387 661.8214 490.21463C 664.07965 489.80246 667.47064 489.18378 669.35693 488.83978C 671.2432 488.4958 672.8463 488.2018 672.9194 488.1865L672.9194 488.1865L673.0522 488.1586L673.0522 496.48682L673.0522 504.81503L672.31555 505.02094C 658.13196 508.98508 641.7187 512.6677 620.11035 516.7342C 616.60333 517.39417 611.8793 518.2601 611.7855 518.2601C 611.7111 518.2601 611.7053 517.582 611.7053 508.82175L611.7053 508.82175L611.7054 508.8218z" stroke="#F38BA8" stroke-width="0.0018355759" fill="#FF708A" fill-rule="nonzero" />
        <path transform="matrix(0.26458332 0 0 0.26458332 0 0)"  d="M117.09036 762.8251C 117.09036 762.35846 117.6629 760.86365 118.362686 759.50323C 119.99484 756.3302 131.55449 738.81946 135.89613 732.9433C 168.52545 688.7813 179.99132 672.8275 201.07098 642.258C 209.13179 630.5683 216.94955 619.265 218.44379 617.1396C 219.938 615.01416 222.84956 610.84064 224.91393 607.8651C 247.44618 575.387 271.55276 543.64703 289.77734 522.4626C 309.28714 499.78418 343.22693 468.36142 348.21216 468.36142C 353.12143 468.36142 349.89725 486.52032 341.92352 503.7794C 340.2634 507.37274 338.9051 510.5871 338.9051 510.92236C 338.9051 511.7426 341.16635 513.961 342.00244 513.961C 343.22104 513.961 354.34546 502.21005 370.17163 484.20535C 394.2848 456.77295 411.3479 441.17398 424.84576 434.22266C 432.75742 430.1482 447.39078 426.62955 456.43314 426.62732C 474.99976 426.6223 487.4332 436.4947 487.4332 451.24078C 487.4332 457.7035 486.3896 461.7118 482.88144 468.72327C 474.9558 484.56354 462.13043 497.6574 436.73758 515.833C 427.59344 522.3782 416.19244 528.35834 416.19244 526.6095C 416.19244 525.9497 420.65195 522.4342 431.1909 514.78595C 445.81125 504.17578 450.81616 500.06204 456.72418 493.79926C 468.27515 481.55463 469.58072 470.61038 460.50494 462.1064C 453.29413 455.3499 448.75778 453.57657 438.79004 453.61765C 426.95615 453.66644 417.84702 456.31824 406.45306 463.0314C 388.02844 473.88696 372.88663 488.1355 351.50925 514.7338C 333.38217 537.288 317.149 553.2253 315.319 550.26434C 314.73267 549.3156 315.57755 545.1334 316.78323 543.01636C 317.26053 542.1782 319.4262 538.96857 321.59586 535.8838C 333.2258 519.34827 336.97247 502.31744 329.64767 499.28342C 324.77258 497.2641 316.8292 502.9171 299.0793 521.0378C 277.74658 542.81616 259.98553 566.3422 218.33679 627.9884C 214.7236 633.3364 209.66075 640.73474 207.086 644.4291C 204.51125 648.1234 195.82925 660.7103 187.79266 672.4001C 171.59035 695.96735 156.3933 717.2531 146.95972 729.5927C 136.92456 742.71924 130.18723 751.3669 126.915695 755.31995C 123.68141 759.228 117.090324 764.26263 117.090324 762.825L117.090324 762.825L117.09036 762.8251z" stroke="none" fill="#FF708A" fill-rule="nonzero" />
        <path transform="matrix(0.26458332 0 0 0.26458332 0 0)"  d="M117.50185 762.3659C 117.50185 760.2837 130.10323 741.2083 143.376 723.1987C 169.0872 688.3118 180.7014 672.0709 204.12941 638.2432C 246.18515 577.519 266.55743 550.02216 288.34583 524.5749C 308.5808 500.9419 343.20898 468.5715 348.2553 468.5715C 349.57092 468.5715 350.11243 470.08206 350.11243 473.752C 350.11243 480.8106 347.34818 490.64078 341.69357 503.69104L341.69357 503.69104L338.45126 511.174L339.82446 512.60736C 340.5797 513.3957 341.5596 514.0407 342.00195 514.0407C 343.07632 514.0407 353.80902 502.94803 366.09302 489.14163C 398.66684 452.53073 413.97525 438.82114 429.27737 432.55618C 433.8923 430.66675 444.09448 428.10208 449.84003 427.38702C 467.4154 425.19974 481.6094 431.58286 485.84302 443.57776C 487.24255 447.543 487.43118 455.03714 486.24655 459.6088C 484.7628 465.33478 480.00064 474.2894 474.60812 481.49335C 464.6601 494.78305 438.34625 516.3043 421.98987 524.52814C 417.2557 526.90845 415.63895 527.1129 418.0768 525.02313C 418.99814 524.23334 424.1673 520.3247 429.56375 516.3374C 447.79984 502.86316 452.6245 498.84177 458.00488 492.6317C 464.15475 485.53348 466.52036 480.46298 466.4968 474.42966C 466.47888 469.83774 465.02835 466.66232 461.06174 462.5315C 457.18228 458.49142 453.24652 455.89664 449.00543 454.58295C 446.1581 453.701 444.49554 453.53073 438.8969 453.5478C 427.9043 453.5813 421.06537 455.27063 410.8614 460.47293C 391.66302 470.26086 375.5152 484.9118 351.55682 514.28C 335.82782 533.56067 322.60812 547.38696 317.65506 549.73737C 315.32654 550.84235 314.93225 550.1823 315.82925 546.681C 316.3833 544.5183 317.79178 541.95526 321.4481 536.4561C 329.58585 524.2168 333.3606 514.96625 333.3606 507.26273C 333.3606 503.09058 332.74017 501.35022 330.6732 499.72433C 326.57962 496.50433 319.5351 500.67813 304.93823 514.9721C 280.7446 538.66376 265.722 558.0425 223.25082 620.3465C 180.67944 682.79755 159.07053 713.4718 142.30183 735.2552C 127.794235 754.10126 125.3539 757.01514 121.539856 760.046C 117.660515 763.1288 117.50179 763.22 117.50179 762.3659L117.50179 762.3659L117.50185 762.3659z" stroke="#FFCD83" stroke-width="2.1000004" fill="#FFCD83" fill-rule="nonzero" />
        <path transform="matrix(0.26458332 0 0 0.26458332 0 0)"  d="M502.5912 499.7426C 502.1496 499.0281 509.20102 489.24374 511.6032 487.23782C 513.3109 485.81183 527.11255 468.85654 529.7783 464.90973C 534.06366 458.56516 538.9761 447.58224 540.25696 441.48224C 541.9827 433.26355 541.5951 422.94644 539.33325 416.90128C 533.19 400.4819 518.7942 397.4851 500.15707 408.74582C 489.8473 414.9751 488.63913 413.39944 497.28882 405.0051C 517.4105 385.47742 538.68384 374.1072 552.44135 375.5271C 559.5418 376.25992 562.7766 378.27347 565.39453 383.5899C 567.45184 387.76785 567.6432 389.36203 567.60944 402.04297C 567.56464 418.9052 565.8421 426.0805 558.0729 441.76865C 551.51 455.02084 542.851 466.59384 529.3773 480.12122C 512.2784 497.28824 504.5659 502.93777 502.59116 499.7426L502.59116 499.7426L502.5912 499.7426z" stroke="#CAFF8E" stroke-width="2.010214" fill="#CAFF8E" fill-rule="nonzero" />
        <path transform="matrix(0.26458332 0 0 0.26458332 0 0)"  d="M109.5 672.14667C 109.5 671.1636 117.84805 658.9998 124.21302 650.70856C 129.11682 644.3207 166.35359 600.6783 178.93224 586.57623C 190.3317 573.7962 203.71896 563.88556 206.21333 566.37994C 207.97739 568.144 197.15897 580.1261 156.89792 620.99994C 131.09091 647.1997 125.17705 653.7353 117.85513 664.1473C 113.05696 670.9704 109.49999 674.3759 109.49999 672.1466L109.49999 672.1466L109.5 672.14667z" stroke="#C8A9FF" stroke-width="2.1000004" fill="#FFCD83" fill-rule="nonzero" />
        <path transform="matrix(0.26458332 0 0 0.26458332 0 0)"  d="M107.16667 675.3333C 104.604324 672.77094 109.3778 664.13495 122.589935 647.43005C 129.16597 639.1156 172.15195 588.90845 179.64894 580.78577C 189.51868 570.0924 199.80376 563 205.44112 563C 207.85237 563 208.59224 563.51935 209.10786 565.5737C 210.37494 570.62213 208.78487 572.49054 163.21573 619.5C 145.62183 637.65 128.28545 656.325 124.690445 661C 121.09544 665.675 116.79363 670.9625 115.13087 672.75C 112.331505 675.7594 108.753334 676.92 107.166664 675.3333L107.166664 675.3333L107.16667 675.3333zM190.5 580.5827C 190.5 579.2943 184.12962 585.4535 180.24265 590.5C 177.98138 593.4358 178.93602 592.7784 183.83087 588.0289C 187.4989 584.4698 190.50002 581.11896 190.50002 580.5827z" stroke="#FFCD83" stroke-width="2.1000004" fill="#FFCD83" fill-rule="nonzero" />
        <path transform="matrix(0.26458332 0 0 0.26458332 0 0)"  d="M334.35495 497.69336C 332.1563 495.07672 330.99673 494.54544 327.48416 494.54544L327.48416 494.54544L323.2584 494.54544L328.17706 490.02274C 337.77063 481.20142 344.55676 475.72345 345.1527 476.3194C 346.3494 477.51608 339.01587 501.14957 337.5189 500.92065C 337.2335 500.87695 335.80972 499.42474 334.35492 497.69336L334.35492 497.69336L334.35495 497.69336z" stroke="none" fill="#FFCD83" fill-rule="nonzero" />
        <path transform="matrix(0.26458332 0 0 0.26458332 0 0)"  d="M470.521 474.08786C 470.50558 470.11606 469.82053 467.51627 467.94687 464.3191C 464.6062 458.6187 456.66147 452.4224 450.25317 450.51932C 439.0113 447.18085 423.27325 449.3953 409.62067 456.23657C 398.41586 461.8513 398.45068 461.84512 402.5 457.499C 407.9989 451.59702 420.21167 442.17432 426.43222 439.03418C 443.42957 430.45395 463.13586 429.21228 473.90662 436.04285C 485.12967 443.1603 485.41473 456.2978 474.70856 472.99994L474.70856 472.99994L470.54202 479.49994L470.52103 474.0878L470.521 474.08786z" stroke="none" fill="#FFCD83" fill-rule="nonzero" />
        <path transform="matrix(0.26458332 0 0 0.26458332 0 0)"  d="M104.7 677.8C 102.912636 676.01263 103.24802 670.4138 105.39426 666.21014C 108.1246 660.86237 117.485886 648.0451 126.31598 637.5646C 149.32037 610.26025 176.02356 579.68933 181.84042 573.99786C 197.7977 558.3845 212.5 555.1383 212.5 567.22833C 212.5 572.4483 208.33519 577.4741 176.64153 610.5C 142.42683 646.1529 134.31992 654.8989 125.298485 665.8907C 121.41215 670.6258 117.05512 675.51025 115.6162 676.74506C 112.73319 679.21906 106.70188 679.80194 104.7 677.80005L104.7 677.80005L104.7 677.8z" stroke="#CAFF8E" stroke-width="2.1000004" fill="#CAFF8E" fill-rule="nonzero" />
        <path transform="matrix(0.26458332 0 0 0.26458332 0 0)"  d="M586.36914 456.95694C 578.55414 449.65662 577.3548 441.22046 581.3609 421.72958C 584.058 408.60764 588.79736 399.3407 601.4223 382.50363C 611.6162 368.90872 635.2227 344.1305 636.6352 345.54294C 637.10535 346.01312 634.0105 350.7125 629.75775 355.98602C 609.92773 380.57556 604.56116 391.3948 603.60645 408.70773C 602.7548 424.15182 606.06464 431.711 615.8361 436.63846C 623.6005 440.5538 629.23566 440.64893 638.77155 437.02557C 642.8171 435.4884 646.3632 434.46686 646.6518 434.75546C 647.79803 435.9017 625.94745 451.73123 616.9976 456.2383C 609.37555 460.07672 605.8049 461.03363 599.1044 461.03363C 591.83105 461.03363 590.1611 460.49905 586.3692 456.95694L586.3692 456.95694L586.36914 456.95694z" stroke="#89B4FA" stroke-width="2.969842" fill="#89B4FA" fill-rule="nonzero" />
        <path transform="matrix(0.26458332 0 0 0.26458332 0 0)"  d="M498.63486 504.92743C 493.63763 500.9966 495.36572 497.1028 510.54752 478.08527C 529.1182 454.82257 532.8654 447.53406 533.72705 433C 533.903 421.32553 530.6683 408.15103 519.1201 409.2168C 516.57904 409.46225 510.225 411.60056 505 413.9686C 493.4983 419.18134 489.59134 419.58145 486.75595 415.83704C 485.28583 413.8956 484.9245 412.4054 485.42233 410.33704C 497.36813 390.69196 543.226 358.359 562.21326 370.38626C 581.29144 382.47113 572.5835 419.8463 565.8429 436.32626C 559.26697 452.40353 550.3378 467.7266 531.53345 486.54037C 511.54053 506.5432 505.1966 510.08884 498.6349 504.92743L498.6349 504.92743L498.63486 504.92743z" stroke="#C8A9FF" stroke-width="0.7999994" fill="#C8A9FF" fill-rule="nonzero" />
	</g>
</g>
</svg>